<svg width="462" height="350" viewBox="0 0 462 350" fill="none" xmlns="http://www.w3.org/2000/svg">
<path d="M166.299 70.0001L166.099 70.2001C164.697 71.7001 163.094 72.4001 161.592 72.4001L164.396 67.5001C166.199 64.4001 164.496 61.4001 161.692 61.4001C159.388 61.4001 157.585 62.3001 155.883 65.3001L154.38 67.9001L153.179 70.0001L152.978 70.2001C150.775 72.7001 148.672 74.7001 147.37 74.7001C146.668 74.7001 146.368 74.2001 147.069 73.1001L153.479 61.9001H155.883L156.784 60.5001H154.28L157.085 55.6001H154.08L151.276 60.5001H148.571L147.67 61.9001H150.374L144.365 72.3001C143.063 74.5001 143.964 76.6001 146.368 76.6001C148.071 76.6001 150.074 75.3001 151.877 73.5001C151.877 77.3001 157.185 78.1001 160.39 74.0001H161.091C162.894 74.0001 165.698 72.9001 167.2 71.1001C167.2 70.6001 166.7 70.2001 166.299 70.0001ZM159.889 70.2001H159.789C158.787 70.2001 157.986 71.0001 157.986 72.0001C157.986 72.4001 158.086 72.7001 158.287 73.0001V73.1001C156.884 75.5001 153.479 75.1001 155.182 71.9001L157.485 68.0001L158.887 65.6001C160.991 62.0001 163.895 63.4001 162.092 66.5001L159.889 70.2001Z" fill="#766458"/>
<path d="M207.864 70.0001L207.664 70.2001C205.46 72.7001 202.756 74.7001 200.653 74.7001C198.85 74.7001 197.748 73.5001 199.05 71.1001L199.351 70.6001C201.254 71.4001 204.959 71.0001 207.163 67.1001L207.563 66.4001C209.166 63.6001 207.664 61.6001 205.16 61.6001C202.756 61.6001 200.853 62.9001 199.551 65.1001L196.646 70.1001L196.446 70.3001C194.243 72.8001 192.139 74.8001 190.837 74.8001C190.136 74.8001 189.836 74.3001 190.537 73.2001L194.844 65.6001C196.146 63.3001 194.944 61.7001 193.241 61.7001C191.939 61.7001 190.537 62.4001 189.035 64.0001L193.842 55.7001H190.837L182.524 70.0001L182.324 70.2001C180.121 72.7001 178.017 74.7001 176.715 74.7001C176.014 74.7001 175.714 74.2001 176.415 73.1001L182.825 61.9001H185.229L186.13 60.5001H183.626L186.431 55.6001H183.426L180.621 60.5001H177.917L177.016 61.9001H179.72L173.711 72.3001C172.409 74.5001 173.31 76.6001 175.714 76.6001C176.916 76.6001 178.218 76.0001 179.52 75.0001L178.718 76.3001H181.723L186.23 68.4001C190.837 62.6001 192.841 63.4001 191.639 65.6001L187.733 72.4001C186.431 74.6001 187.332 76.7001 189.736 76.7001C191.538 76.7001 193.542 75.3001 195.344 73.5001C195.445 75.4001 197.047 76.7001 199.451 76.7001C202.856 76.7001 206.261 74.1001 208.665 71.2001C208.765 70.6001 208.265 70.2001 207.864 70.0001ZM202.155 65.8001C203.858 62.8001 206.963 63.3001 205.16 66.4001L204.759 67.1001C203.357 69.5001 201.354 69.5001 200.252 69.1001L202.155 65.8001Z" fill="#766458"/>
<path d="M317.134 70.0001L316.934 70.2001C315.832 71.5001 314.53 72.6001 313.328 73.5001C314.33 70.6001 314.03 66.3001 315.933 62.4001L313.729 61.2001C312.527 62.9001 309.823 66.8001 307.019 70.0001L306.818 70.2001C304.615 72.7001 302.512 74.7001 301.21 74.7001C300.508 74.7001 300.208 74.2001 300.909 73.1001L307.319 61.9001H304.314L299.006 71.2001C296.703 73.3001 295 74.4001 294.399 74.2001C293.698 73.9001 294.399 72.8001 294.8 72.1001L300.609 61.9001H297.604L292.897 70.0001L292.696 70.2001C291.294 71.7001 289.692 72.4001 288.189 72.4001L290.994 67.5001C292.796 64.4001 291.094 61.4001 288.289 61.4001C285.986 61.4001 284.183 62.3001 282.48 65.3001L280.978 67.9001L279.776 70.0001L279.576 70.2001C277.372 72.7001 274.668 74.7001 272.565 74.7001C270.762 74.7001 269.66 73.5001 270.962 71.1001L271.263 70.6001C273.166 71.4001 276.872 71.0001 279.075 67.1001L279.476 66.4001C281.078 63.6001 279.576 61.6001 277.072 61.6001C274.668 61.6001 272.765 62.9001 271.463 65.1001L268.559 70.1001L268.358 70.3001C265.854 73.2001 263.751 75.0001 261.347 76.0001L268.058 64.5001H266.255C266.255 63.3001 264.953 61.6001 263.15 61.6001C261.548 61.6001 259.244 62.9001 258.042 65.1001L255.138 70.1001L254.937 70.3001C252.734 72.8001 250.631 74.8001 249.329 74.8001C248.628 74.8001 248.327 74.3001 249.028 73.2001L252.033 68.0001C253.034 66.2001 252.534 65.1001 251.632 63.9001L249.93 61.9001C249.529 61.4001 249.529 60.7001 250.13 60.2001L248.527 58.5001C246.825 60.0001 246.725 61.7001 247.726 63.1001L248.027 63.4001C246.725 65.3001 244.922 67.8001 242.919 70.1001L242.718 70.3001C241.316 71.8001 239.714 72.5001 238.211 72.5001L241.016 67.6001C242.818 64.5001 241.116 61.5001 238.311 61.5001C236.008 61.5001 234.205 62.4001 232.502 65.4001L231 68.0001L229.798 70.1001L229.598 70.3001C227.094 73.2001 224.991 75.0001 222.587 76.0001L229.297 64.5001H227.495C227.495 63.3001 226.193 61.6001 224.39 61.6001C222.787 61.6001 220.484 62.9001 219.282 65.1001L215.075 72.4001C213.773 74.6001 214.675 76.7001 217.078 76.7001C217.88 76.7001 218.881 76.3001 219.983 75.7001L219.182 77.1001C215.175 78.3001 212.571 80.0001 212.571 82.2001C212.571 85.1001 216.978 85.7001 219.182 82.0001L221.485 78.1001C223.889 77.4001 226.193 75.9001 228.696 73.6001C228.696 77.4001 234.005 78.2001 237.21 74.1001H237.911C239.714 74.1001 242.518 73.0001 244.02 71.2001C245.423 69.5001 246.624 68.0001 249.028 64.8001L249.429 65.3001C249.829 65.8001 249.93 66.4001 249.629 67.0001L246.424 72.5001C245.122 74.7001 246.023 76.8001 248.427 76.8001C249.93 76.8001 251.632 75.8001 253.235 74.4001C253.235 75.8001 254.136 76.8001 255.839 76.8001C256.64 76.8001 257.642 76.4001 258.743 75.8001L258.042 77.0001C254.036 78.2001 251.432 79.9001 251.432 82.1001C251.432 85.0001 255.839 85.6001 258.042 81.9001L260.346 78.0001C262.75 77.2001 265.153 75.8001 267.657 73.4001C267.757 75.3001 269.26 76.6001 271.764 76.6001C274.167 76.6001 276.671 75.2001 278.674 73.4001C278.574 77.3001 283.983 78.1001 287.188 74.0001H287.889C288.79 74.0001 290.092 73.7001 291.194 73.1001C290.393 75.2001 291.094 76.6001 292.796 76.6001C294.399 76.6001 296.302 75.1001 297.704 73.7001C297.404 75.3001 298.405 76.6001 300.308 76.6001C302.812 76.6001 305.616 74.0001 308.12 71.1001C309.823 69.1001 311.325 67.0001 312.427 65.6001C311.225 68.7001 311.926 74.3001 309.022 74.3001C308.02 74.3001 307.62 73.2001 307.62 73.2001L305.717 74.2001C305.717 74.2001 306.217 76.6001 309.022 76.6001C309.322 76.6001 309.523 76.6001 309.823 76.5001H309.923C313.028 76.1001 316.033 73.7001 318.236 71.1001C318.136 70.6001 317.635 70.1001 317.134 70.0001ZM274.167 65.8001C275.87 62.8001 278.975 63.3001 277.172 66.4001L276.771 67.1001C275.369 69.5001 273.366 69.5001 272.264 69.1001L274.167 65.8001ZM216.878 81.4001C216.277 82.5001 215.276 82.4001 215.276 81.5001C215.276 80.7001 215.977 79.8001 218.28 78.9001L216.878 81.4001ZM218.28 74.7001C217.579 74.7001 217.279 74.2001 217.98 73.1001L222.186 65.8001C223.789 63.0001 226.994 63.7001 225.491 66.4001L223.188 70.4001C221.385 73.3001 219.482 74.7001 218.28 74.7001ZM236.709 70.2001H236.609C235.607 70.2001 234.806 71.0001 234.806 72.0001C234.806 72.4001 234.906 72.7001 235.106 73.0001V73.1001C233.704 75.5001 230.299 75.1001 232.002 71.9001L234.305 68.0001L235.707 65.6001C237.811 62.0001 240.715 63.4001 238.912 66.5001L236.709 70.2001ZM255.538 81.4001C254.937 82.5001 253.936 82.4001 253.936 81.5001C253.936 80.7001 254.637 79.8001 256.94 78.9001L255.538 81.4001ZM256.94 74.7001C256.239 74.7001 255.939 74.2001 256.64 73.1001L260.847 65.8001C262.449 63.0001 265.654 63.7001 264.152 66.4001L261.848 70.4001C260.045 73.3001 258.142 74.7001 256.94 74.7001ZM286.487 70.2001H286.386C285.385 70.2001 284.584 71.0001 284.584 72.0001C284.584 72.4001 284.684 72.7001 284.884 73.0001V73.1001C283.482 75.5001 280.077 75.1001 281.779 71.9001L284.083 68.0001L285.485 65.6001C287.588 62.0001 290.493 63.4001 288.69 66.5001L286.487 70.2001Z" fill="#766458"/>
<path d="M131.144 66.8H102.199V68.8H131.144V66.8Z" fill="#766458"/>
<path d="M358.499 66.8H329.554V68.8H358.499V66.8Z" fill="#766458"/>
<path d="M164.096 0H171.808L170.606 44.9H156.083L154.08 26.4L152.077 44.9H137.454L136.352 0H143.964L144.565 37.2H145.366L150.274 0H157.886L162.794 37.2H163.595L164.096 0Z" fill="#81B3D3"/>
<path d="M195.945 37.2V45H175.013V0H195.945V7.7H182.624V18.5H193.241V26.2H182.624V37.1H195.945V37.2Z" fill="#81B3D3"/>
<path d="M217.379 37.2V45H199.05V0H206.662V37.2H217.379Z" fill="#81B3D3"/>
<path d="M233.604 28.4L241.316 26.6V40.2C241.316 42.8 239.113 44.9 236.609 44.9H225.091C222.487 44.9 220.383 42.7 220.383 40.2V4.7C220.383 2.1 222.487 0 225.091 0H236.609C239.113 0 241.316 2.1 241.316 4.7V13.8L233.604 15.6V7.6H228.095V37.1H233.604V28.4Z" fill="#81B3D3"/>
<path d="M262.149 0C264.652 0 266.856 2.1 266.856 4.7V40.1C266.856 42.7 264.652 44.8 262.149 44.8H250.631C248.027 44.8 245.923 42.6 245.923 40.1V4.7C245.923 2.1 248.027 0 250.631 0H262.149ZM259.144 7.7H253.635V37.2H259.144V7.7Z" fill="#81B3D3"/>
<path d="M291.895 0H299.507V44.9H291.895V22.8L288.79 34.2H281.278L278.274 22.8V44.9H270.662V0H278.274L285.084 21.7L291.895 0Z" fill="#81B3D3"/>
<path d="M324.245 37.2V45H303.313V0H324.245V7.7H310.925V18.5H321.541V26.2H310.925V37.1H324.245V37.2Z" fill="#81B3D3"/>
<path d="M45.21 157.6C41.6044 154.6 37.0974 152.6 32.2899 152.6C28.6843 152.6 23.9769 154.7 23.9769 158.9C23.9769 163.3 29.2852 165 32.5903 166L37.5982 167.5C48.0144 170.6 56.1271 175.8 56.1271 187.9C56.1271 195.3 54.3243 203 48.415 208C42.5058 213 34.6936 215 27.1819 215C17.7672 215 8.45269 211.8 0.84082 206.5L8.95348 191C13.8611 195.3 19.57 198.7 26.2805 198.7C30.8877 198.7 35.6952 196.4 35.6952 191.2C35.6952 185.7 28.0833 183.9 23.8768 182.7C11.6577 179.1 3.6452 176 3.6452 161.5C3.6452 146.3 14.4621 136.4 29.4855 136.4C36.9972 136.4 46.3118 138.8 52.9221 142.6L45.21 157.6Z" fill="white"/>
<path d="M92.584 154.8V167.3H114.518V183.8H92.584V196.7H115.82V213.2H73.1537V138.4H115.82V154.9L92.584 154.8Z" fill="white"/>
<path d="M130.243 138.4H157.886C178.718 138.4 195.945 154.8 195.945 175.8C195.945 196.8 178.618 213.2 157.886 213.2H130.243V138.4ZM149.773 196.7H154.18C165.798 196.7 175.714 190.3 175.714 175.8C175.714 162.4 166.9 154.9 154.38 154.9H149.773V196.7Z" fill="white"/>
<path d="M287.989 174.4C287.989 198.6 270.562 215.7 246.524 215.7C222.487 215.7 205.059 198.6 205.059 174.4C205.059 151.8 224.991 135.9 246.524 135.9C268.058 135.9 287.989 151.8 287.989 174.4ZM225.291 174.5C225.291 187.4 234.806 196.8 246.424 196.8C258.042 196.8 267.557 187.4 267.557 174.5C267.557 164.2 258.042 154.7 246.424 154.7C234.906 154.7 225.291 164.2 225.291 174.5Z" fill="white"/>
<path d="M298.305 138.4H317.835L353.491 184.2H353.691V138.4H373.222V213.2H353.691L318.036 167.3H317.835V213.2H298.305V138.4Z" fill="white"/>
<path d="M408.577 200.2L403.369 213.2H382.737L411.582 138.4H432.815L461.059 213.2H440.326L435.419 200.2H408.577ZM422.198 161.5H421.998L413.985 185.3H430.211L422.198 161.5Z" fill="white"/>
<path d="M108.91 287.7C116.622 285.1 117.122 275.5 109.611 275.5C107.507 275.5 105.003 277 103.301 279.9L93.0848 297.6C92.584 298.4 92.1834 299.1 91.5825 299.8C88.9784 296.2 89.6795 290.8 93.3853 288.4L91.8829 286.5C83.8704 291.6 86.2742 306.2 99.595 306.2C110.913 306.2 116.221 292.6 108.91 287.7ZM99.4948 303.3C97.1912 303.3 95.4886 302.8 93.9862 302C94.6873 301.2 95.2883 300.3 95.8892 299.3L102.299 288.2L103.301 288.3C112.215 290.2 108.709 303.3 99.4948 303.3ZM103.601 286L106.706 280.7C109.51 275.9 113.016 278.7 111.113 282.3C109.611 285.1 107.507 285.9 103.601 286Z" fill="white"/>
<path d="M141.06 300C140.459 302.2 141.661 304.1 144.165 304.1C145.667 304.1 147.57 303.1 149.473 301.6C149.673 303.1 150.875 304.1 152.778 304.1C154.781 304.1 156.985 302.7 159.188 300.7C158.787 302.7 159.689 304.1 161.592 304.1C163.695 304.1 165.999 302.2 167.801 300.5C167.401 302.5 168.603 304.1 171.006 304.1C174.111 304.1 177.717 300.7 180.922 297.1C180.922 297 180.822 297 180.822 296.9C182.925 294.5 184.728 291.9 186.13 290.1C184.628 294 185.429 301.1 181.823 301.1C180.521 301.1 180.021 299.7 180.021 299.7L177.617 300.9C177.617 300.9 178.318 304 181.823 304C182.224 304 182.524 304 182.925 303.9H183.025C185.83 303.5 188.534 301.8 190.938 299.7C191.038 302.2 192.941 304 196.046 304C200.352 304 204.659 300.6 207.764 297C207.463 296.5 206.862 295.9 206.362 295.7L206.061 296C203.357 299.2 199.851 301.7 197.147 301.7C194.844 301.7 193.441 300.2 195.144 297.2L195.545 296.5C197.948 297.5 202.556 297 205.46 292.1L205.961 291.2C207.964 287.7 206.061 285.1 202.956 285.1C199.851 285.1 197.448 286.7 195.845 289.5L192.139 295.8H192.039L191.739 296.1C190.337 297.7 188.634 299.2 187.132 300.2C188.333 296.6 188.033 291 190.437 286.2L187.632 284.7C186.03 286.9 182.625 291.8 179.219 295.8L179.319 295.9L179.219 296.1C176.515 299.3 173.811 301.8 172.108 301.8C171.307 301.8 170.806 301.2 171.708 299.7L179.82 285.5H176.014L169.304 297.3C166.399 299.9 164.196 301.4 163.495 301.1C162.593 300.7 163.495 299.3 163.996 298.5L171.407 285.6H167.601L161.592 296C161.492 295.9 161.391 295.9 161.291 295.8L160.991 296.1C158.287 299.3 155.582 301.8 153.88 301.8C153.078 301.8 152.578 301.2 153.479 299.7L159.589 289H157.385C157.485 287.4 155.883 285.2 153.379 285.2C151.376 285.2 148.471 286.8 146.869 289.6L143.063 296.2C142.863 296 142.662 295.9 142.462 295.8L142.161 296.1C139.457 299.3 135.952 301.8 133.248 301.8C130.944 301.8 129.542 300.3 131.244 297.3L135.151 290.5C137.354 286.7 141.26 287.4 138.956 291.3L138.456 292.2H141.561L142.061 291.3C144.064 287.8 142.161 285.2 139.057 285.2C135.952 285.2 133.548 286.8 131.946 289.6L128.14 296.1C128.039 296 127.939 296 127.839 295.9L127.539 296.2C124.834 299.4 121.329 301.9 118.625 301.9C116.321 301.9 114.919 300.4 116.622 297.4L117.022 296.7C119.426 297.7 124.033 297.2 126.938 292.3L127.438 291.4C129.442 287.9 127.539 285.3 124.434 285.3C121.329 285.3 118.925 286.9 117.323 289.7L113.316 296.5C110.913 300.5 113.016 304.3 117.523 304.3C120.828 304.3 124.233 302.3 126.938 299.7C126.838 302.3 128.841 304.3 132.046 304.3C135.251 304.1 138.356 302.3 141.06 300ZM199.15 290.4C201.354 286.6 205.26 287.3 202.956 291.2L202.456 292.1C200.653 295.2 198.149 295.1 196.747 294.6L199.15 290.4ZM144.866 299.7L150.174 290.5C152.177 287 156.283 287.9 154.381 291.3L151.376 296.5C149.072 300.1 146.769 301.8 145.266 301.8C144.465 301.7 143.964 301.2 144.866 299.7ZM120.628 290.4C122.831 286.6 126.737 287.3 124.434 291.2L123.933 292.1C122.13 295.2 119.626 295.1 118.224 294.6L120.628 290.4Z" fill="white"/>
<path d="M249.429 304.1C253.735 304.1 258.042 300.7 261.147 297.1C260.847 296.6 260.246 296 259.745 295.8L259.444 296.1C256.74 299.3 253.235 301.8 250.53 301.8C248.227 301.8 246.825 300.3 248.527 297.3L248.928 296.6C251.332 297.6 255.939 297.1 258.843 292.2L259.344 291.3C261.347 287.8 259.444 285.2 256.34 285.2C253.235 285.2 250.831 286.8 249.228 289.6L245.523 295.9C245.523 295.9 245.422 295.9 245.422 295.8L245.122 296.1C242.418 299.3 239.714 301.8 238.011 301.8C237.21 301.8 236.709 301.2 237.61 299.7L243.119 290.1C244.721 287.2 243.219 285.1 241.116 285.1C239.513 285.1 237.71 286 235.807 288L241.917 277.5H238.011L227.294 296C227.194 295.9 226.994 295.8 226.894 295.7L226.593 296C223.889 299.2 221.185 301.7 219.482 301.7C218.681 301.7 218.18 301.1 219.081 299.6L227.194 285.4H230.299L231.401 283.6H228.296L231.901 277.4H228.095L224.49 283.6H221.085L219.983 285.4H223.488L215.876 298.6C214.274 301.4 215.376 304 218.48 304C220.383 304 222.387 302.8 224.49 301L222.987 303.6H226.793L232.602 293.6C238.412 286.3 241.016 287.2 239.413 290L234.505 298.6C232.903 301.4 234.005 304 237.11 304C239.413 304 242.017 302.2 244.421 299.8C244.421 302.3 246.324 304.1 249.429 304.1ZM252.534 290.4C254.737 286.6 258.643 287.3 256.34 291.2L255.839 292.1C254.036 295.2 251.532 295.1 250.13 294.6L252.534 290.4Z" fill="white"/>
<path d="M364.608 295.8L364.308 296.1C361.604 299.3 358.899 301.8 357.197 301.8C356.396 301.8 355.895 301.2 356.796 299.7L369.616 277.5H365.81L360.201 287.1C359.5 286 358.298 285.1 356.696 285.1C354.693 285.1 351.788 286.7 350.186 289.5L346.48 295.9C346.38 295.9 346.28 295.8 346.28 295.8L345.979 296.1C343.275 299.3 340.571 301.8 338.868 301.8C338.067 301.8 337.566 301.2 338.468 299.7L343.976 290.1C345.579 287.2 344.076 285.1 341.973 285.1C340.371 285.1 338.568 286 336.665 287.9L338.067 285.4H334.261L328.151 295.9C328.051 295.8 327.951 295.7 327.751 295.7L327.45 296C324.746 299.2 322.042 301.7 320.339 301.7C319.538 301.7 319.037 301.1 319.939 299.6L326.048 288.9H324.145C324.245 287.3 322.643 285.1 320.139 285.1C318.136 285.1 315.231 286.7 313.629 289.5L309.923 295.8L309.723 296C307.018 299.2 304.314 301.7 302.612 301.7C301.81 301.7 301.31 301.1 302.211 299.6L306.017 293C307.319 290.7 306.718 289.4 305.516 287.9L303.413 285.3C302.912 284.6 302.912 283.8 303.613 283.1L301.61 280.9C299.407 282.8 299.306 285 300.608 286.7L300.909 287.1C299.206 289.5 297.003 292.7 294.499 295.6C294.599 295.7 294.699 295.8 294.799 295.9C291.695 299.5 288.99 301.8 285.986 303.1L290.793 294.9H287.087L286.687 295.6C284.684 299.1 282.38 301.7 279.375 301.7C276.771 301.7 276.271 299.1 278.574 295.2L279.676 293.3C280.377 293.4 281.078 293.5 281.879 293.5C295.4 293.5 301.911 275.4 289.992 275.4C287.889 275.4 285.385 276.9 283.682 279.8L277.773 290C275.569 288.8 274.368 286.7 274.368 284.6C274.368 282.8 275.169 281.1 276.771 279.8L275.569 277.6C272.865 279.5 271.663 282.1 271.663 284.7C271.663 287.7 273.366 290.6 276.471 292.2L275.369 294.2C272.665 298.8 273.166 303.9 278.574 303.9C280.177 303.9 281.579 303.4 282.681 302.7L281.679 304.4C276.571 306 273.366 308 273.366 310.9C273.366 314.5 278.975 315.3 281.679 310.6L284.583 305.6C288.49 304.4 292.396 301.7 296.602 296.8C296.502 296.7 296.502 296.6 296.402 296.4C298.105 294.4 299.507 292.5 302.411 288.6L302.912 289.2C303.413 289.8 303.613 290.6 303.112 291.4L299.106 298.4C297.504 301.2 298.605 303.8 301.71 303.8C303.613 303.8 305.716 302.6 307.72 300.8C307.72 302.5 308.821 303.8 311.025 303.8C312.527 303.8 314.43 302.8 316.333 301.3C316.533 302.8 317.735 303.8 319.638 303.8C321.441 303.8 323.444 302.7 325.347 301L323.945 303.4H327.751L333.56 293.3C339.369 286 341.973 287 340.27 289.8L335.363 298.4C333.76 301.2 334.862 303.8 337.967 303.8C339.97 303.8 342.173 302.4 344.377 300.5C344.176 302.4 345.378 303.8 347.682 303.8C349.184 303.8 351.087 302.8 352.99 301.3C353.191 302.8 354.392 303.8 356.295 303.8C359.4 303.8 363.006 300.4 366.211 296.8C365.81 296.6 365.109 296 364.608 295.8ZM286.587 281.6C287.688 279.7 288.99 278.8 289.992 278.8C296.001 278.8 291.795 291.1 281.879 291.1H281.078L286.587 281.6ZM278.474 310.2C277.673 311.6 276.371 311.4 276.371 310.4C276.371 309.4 277.272 308.3 280.177 307.2L278.474 310.2ZM318.236 296.4C315.932 300 313.629 301.7 312.126 301.7C311.325 301.7 310.824 301.1 311.726 299.6L317.034 290.4C319.037 286.9 323.144 287.8 321.241 291.2L318.236 296.4ZM354.993 296.2C352.69 300 350.386 301.7 348.784 301.7C347.982 301.7 347.482 301.1 348.383 299.6L353.691 290.4C355.694 286.9 359.801 287.8 357.898 291.2L354.993 296.2Z" fill="white"/>
<path d="M237.71 331.8L237.41 332.1C234.706 335.3 232.001 337.8 230.299 337.8C229.498 337.8 228.997 337.2 229.898 335.7L235.407 326.1C237.009 323.2 235.507 321.1 233.404 321.1C231.801 321.1 229.998 322 228.095 323.9L229.498 321.4H225.692L219.582 332C219.382 331.9 219.282 331.8 219.081 331.7L218.781 332C217.078 333.9 214.975 334.8 213.072 334.8L216.678 328.6C218.981 324.6 216.878 320.9 213.272 320.9C210.368 320.9 208.064 322.1 205.861 325.9L203.958 329.1L202.355 331.9C202.255 331.8 202.155 331.8 202.055 331.7L201.754 332C198.649 335.6 195.945 337.9 192.941 339.2L203.357 321.4H199.551L192.84 333.1C189.936 335.8 187.632 337.3 186.931 337C186.03 336.6 186.931 335.2 187.432 334.4L194.844 321.5H191.038L184.928 332C184.828 331.9 184.728 331.9 184.628 331.8L184.327 332.1C181.623 335.3 178.919 337.8 177.216 337.8C176.415 337.8 175.914 337.2 176.815 335.7L182.324 326.1C183.926 323.2 182.424 321.1 180.321 321.1C178.718 321.1 176.916 322 175.013 323.9L176.415 321.4H172.609L166.499 331.9C166.399 331.8 166.299 331.7 166.099 331.7L165.798 332C163.094 335.2 160.39 337.7 158.687 337.7C157.886 337.7 157.385 337.1 158.286 335.6L164.396 324.9H162.193C162.293 323.3 160.69 321.1 158.186 321.1C156.183 321.1 153.279 322.7 151.676 325.5L147.77 332.3C147.47 332.1 147.169 331.9 146.969 331.8L146.668 332.1C143.964 335.3 140.559 337.8 136.853 337.8C134.249 337.8 132.647 335.2 134.95 331.3L136.052 329.4C136.753 329.5 137.454 329.6 138.255 329.6C142.261 329.6 146.869 327.5 149.873 322.3C150.975 320.4 151.376 318.7 151.376 317.2C151.376 313.8 149.172 311.5 146.368 311.5C144.265 311.5 141.761 313 140.058 315.9L134.149 326.1C131.945 324.9 130.744 322.8 130.744 320.7C130.744 318.9 131.545 317.2 133.147 315.9L131.945 313.7C129.241 315.6 128.039 318.2 128.039 320.8C128.039 323.8 129.742 326.7 132.847 328.3L131.745 330.3C129.041 334.9 130.643 340 136.052 340C140.258 340 143.463 338.1 146.067 335.6C145.266 338 146.468 340 149.172 340C150.675 340 152.578 339 154.481 337.5C154.681 339 155.883 340 157.786 340C159.589 340 161.592 338.9 163.495 337.2L162.092 339.6H165.898L171.707 329.5C177.516 322.2 180.121 323.2 178.418 326L173.51 334.6C171.908 337.4 173.009 340 176.114 340C178.117 340 180.421 338.6 182.624 336.6C182.124 338.7 183.125 340 185.028 340C186.831 340 188.934 338.5 190.637 336.9L188.534 340.5C183.426 342 180.121 344.1 180.121 347C180.121 350.6 185.729 351.4 188.434 346.7L191.338 341.7C194.543 340.7 197.648 338.7 200.953 335.5C200.452 340.8 207.463 342 211.77 336.6H212.571C213.973 336.6 215.876 336.1 217.579 335.1L215.075 339.5H218.881L224.69 329.4C230.499 322.1 233.103 323.1 231.401 325.9L226.493 334.5C224.89 337.3 225.992 339.9 229.097 339.9C232.202 339.9 235.807 336.5 239.012 332.9C238.912 332.6 238.211 332 237.71 331.8ZM143.163 317.6C144.265 315.7 145.567 314.8 146.568 314.8C147.97 314.8 148.671 315.7 148.671 317.1C148.671 320.6 144.365 327 138.456 327H137.654L143.163 317.6ZM156.584 332.4C154.28 336 151.977 337.7 150.474 337.7C149.673 337.7 149.172 337.1 150.074 335.6L155.382 326.4C157.385 322.9 161.491 323.8 159.589 327.2L156.584 332.4ZM185.429 346.2C184.628 347.6 183.326 347.4 183.326 346.4C183.326 345.4 184.227 344.3 187.131 343.2L185.429 346.2ZM211.069 332H210.869C209.667 332 208.665 333 208.665 334.3C208.665 334.8 208.765 335.2 209.066 335.6V335.7C207.263 338.8 202.956 338.2 205.16 334.2L208.064 329.2L209.867 326.1C212.571 321.6 216.177 323.4 213.873 327.3L211.069 332Z" fill="white"/>
<path d="M325.748 333.1C325.547 332.5 324.846 331.9 324.346 331.8L324.045 332.1C322.643 333.7 320.94 335.2 319.438 336.2C320.64 332.6 320.339 327 322.743 322.2L319.939 320.7C318.336 322.9 314.931 327.8 311.526 331.8L311.225 332.1C308.521 335.3 305.817 337.8 304.114 337.8C303.313 337.8 302.511 337 302.511 335.2V333.6C305.216 333.9 308.02 332.2 309.823 329.1L310.824 327.3C314.33 321.2 308.621 319.2 304.715 322.8L310.123 313.4H306.317L295.501 332.2C295.3 332 295 331.8 294.799 331.7L294.499 332C291.795 335.2 288.289 337.7 285.585 337.7C283.281 337.7 281.879 336.2 283.582 333.2L287.488 326.4C289.691 322.6 293.598 323.3 291.294 327.2L290.793 328.1H293.898L294.399 327.2C296.402 323.7 294.499 321.1 291.394 321.1C288.289 321.1 285.886 322.7 284.283 325.5L280.577 331.9C280.477 331.9 280.377 331.8 280.377 331.8L280.076 332.1C277.372 335.3 274.668 337.8 272.965 337.8C272.164 337.8 271.663 337.2 272.565 335.7L280.677 321.5H276.871L270.161 333.3C267.256 335.9 265.053 337.4 264.352 337.1C263.451 336.7 264.352 335.3 264.853 334.5L272.264 321.6H268.458L261.047 334.3C260.246 335 259.344 335.7 258.643 336.3C259.845 332.7 259.544 327.1 261.948 322.3L259.144 320.8C257.541 323 248.828 334.6 245.322 338.6C245.623 339.1 246.224 339.5 246.724 339.9C248.928 337.4 256.139 328.1 257.441 326.3C255.939 330.2 256.74 337.3 253.134 337.3C251.832 337.3 251.332 335.9 251.332 335.9L248.928 337.1C248.928 337.1 249.629 340.2 253.134 340.2C253.535 340.2 253.836 340.2 254.236 340.1H254.336C256.239 339.8 258.142 339 259.945 337.7C259.945 339.2 260.846 340.2 262.449 340.2C264.552 340.2 266.856 338.3 268.659 336.6C268.258 338.6 269.46 340.2 271.864 340.2C274.267 340.2 276.871 338.3 279.375 335.8C279.375 338.3 281.379 340.2 284.483 340.2C287.588 340.2 290.593 338.5 293.297 336.2L291.194 339.9H295L299.306 332.4V335.4C299.306 338.6 299.907 340.3 303.012 340.3C306.117 340.3 309.723 336.9 312.928 333.3C315.131 330.8 316.934 328.2 318.336 326.4C316.834 330.3 317.635 337.4 314.029 337.4C312.727 337.4 312.227 336 312.227 336L309.823 337.2C309.823 337.2 310.524 340.3 314.029 340.3C314.43 340.3 314.731 340.3 315.131 340.2H315.231C319.037 339.5 322.943 336.4 325.748 333.1ZM300.508 330.1L301.61 328.2C306.017 322.1 309.022 323.8 307.619 326.1L305.817 329.2C304.715 331.2 301.41 332.6 300.508 330.1Z" fill="white"/>
<path d="M325.648 335.7C324.446 335.7 323.444 336.7 323.444 337.9C323.444 339.1 324.346 340.1 325.648 340.1C326.849 340.1 327.851 339.2 327.851 337.9C327.851 336.7 326.849 335.7 325.648 335.7Z" fill="white"/>
<path d="M325.848 334.2H329.654L341.572 313.5H337.766L325.848 334.2Z" fill="white"/>
<path d="M81.1661 277.6C81.1661 277.9 81.066 278.2 80.9658 278.5C80.8656 278.8 80.6653 279.1 80.465 279.3C80.2647 279.5 79.9642 279.7 79.6638 279.9C79.3633 280 78.9627 280.1 78.5621 280.1C78.0613 280.1 77.6607 280 77.26 279.8C76.8594 279.6 76.4588 279.4 76.1583 279.1C75.8578 278.8 75.7577 278.5 75.5574 278.1C75.4572 277.7 75.3571 277.3 75.3571 276.8C75.3571 275.9 75.5574 275.2 75.8578 274.4C76.1583 273.7 76.5589 273 77.1599 272.5C77.3602 272.3 77.6606 272 77.9611 271.8C78.2616 271.6 78.5621 271.4 78.8625 271.3C79.163 271.2 79.3633 271 79.5636 270.9C79.7639 270.8 79.8641 270.8 79.9642 270.7L81.3664 272.7C81.1661 272.8 80.8657 272.9 80.5652 273.1C80.2647 273.2 79.9642 273.4 79.6638 273.6C79.3633 273.8 79.163 274.1 78.9627 274.4C78.7624 274.7 78.6622 275 78.6622 275.4C79.3633 275.4 79.8641 275.6 80.3649 276C80.9658 276.3 81.1661 276.9 81.1661 277.6ZM89.0785 277.6C89.0785 277.9 88.9783 278.2 88.8781 278.5C88.778 278.8 88.5777 279.1 88.3774 279.3C88.1771 279.5 87.8766 279.7 87.5761 279.9C87.2757 280 86.875 280.1 86.4744 280.1C85.9736 280.1 85.573 280 85.1724 279.8C84.7717 279.6 84.3711 279.4 84.0707 279.1C83.8703 278.8 83.67 278.5 83.4697 278.1C83.3696 277.7 83.2694 277.3 83.2694 276.8C83.2694 275.9 83.4697 275.2 83.7702 274.4C84.0707 273.7 84.4713 273 85.0722 272.5C85.2725 272.3 85.573 272 85.8735 271.8C86.1739 271.6 86.4744 271.4 86.7749 271.3C87.0753 271.2 87.2756 271 87.476 270.9C87.6763 270.8 87.7764 270.8 87.8766 270.7L89.2788 272.7C89.0785 272.8 88.778 272.9 88.4775 273.1C88.1771 273.2 87.8766 273.4 87.5761 273.6C87.2757 273.8 87.0753 274.1 86.875 274.4C86.6747 274.7 86.5746 275 86.5746 275.4C87.2757 275.4 87.7764 275.6 88.2772 276C88.778 276.3 89.0785 276.9 89.0785 277.6Z" fill="white"/>
<path d="M354.593 336.5C354.593 336.2 354.693 335.9 354.793 335.6C354.893 335.3 355.094 335 355.294 334.8C355.494 334.6 355.795 334.4 356.095 334.2C356.396 334.1 356.796 334 357.197 334C357.698 334 358.098 334.1 358.499 334.3C358.9 334.5 359.3 334.7 359.601 335C359.901 335.3 360.001 335.6 360.202 336C360.302 336.4 360.402 336.8 360.402 337.3C360.402 338.2 360.202 338.9 359.901 339.7C359.601 340.4 359.2 341.1 358.599 341.6C358.399 341.8 358.098 342.1 357.798 342.3C357.497 342.5 357.197 342.7 356.896 342.8C356.596 342.9 356.396 343.1 356.195 343.2C355.995 343.3 355.895 343.3 355.795 343.4L354.393 341.4C354.593 341.3 354.893 341.2 355.194 341C355.494 340.9 355.795 340.7 356.095 340.5C356.396 340.3 356.596 340 356.796 339.7C356.997 339.4 357.097 339.1 357.097 338.7C356.396 338.7 355.895 338.5 355.394 338.1C354.893 337.8 354.593 337.2 354.593 336.5ZM346.781 336.5C346.781 336.2 346.881 335.9 346.981 335.6C347.081 335.3 347.281 335 347.482 334.8C347.682 334.6 347.983 334.4 348.283 334.2C348.583 334.1 348.984 334 349.385 334C349.885 334 350.286 334.1 350.687 334.3C351.087 334.5 351.488 334.7 351.788 335C351.989 335.3 352.189 335.6 352.389 336C352.49 336.4 352.59 336.8 352.59 337.3C352.59 338.2 352.389 338.9 352.089 339.7C351.788 340.4 351.388 341.1 350.787 341.6C350.587 341.8 350.286 342.1 349.986 342.3C349.685 342.5 349.385 342.7 349.084 342.8C348.784 342.9 348.583 343.1 348.383 343.2C348.183 343.3 348.083 343.3 347.983 343.4L346.58 341.4C346.881 341.3 347.081 341.2 347.382 341C347.682 340.9 347.983 340.7 348.283 340.5C348.583 340.3 348.784 340 348.984 339.7C349.184 339.4 349.285 339.1 349.285 338.7C348.583 338.7 348.083 338.5 347.582 338.1C346.981 337.8 346.781 337.2 346.781 336.5Z" fill="white"/>
</svg>
